<svg width="109" height="44" viewBox="0 0 109 44" fill="none" xmlns="http://www.w3.org/2000/svg">
<path d="M22.48 23.72V17.6C22.48 16.8267 22.4533 16.2667 22.4 15.92C22.3467 15.5467 22.2533 15.1867 22.12 14.84C21.9067 14.3067 21.52 13.8667 20.96 13.52C20.4 13.1733 19.8133 13 19.2 13C18.56 13 17.9467 13.2 17.36 13.6C16.8 13.9733 16.4133 14.44 16.2 15C16.0667 15.2933 15.9867 15.6 15.96 15.92C15.9333 16.24 15.92 16.7467 15.92 17.44V23.72C15.92 24.2533 15.8933 24.6933 15.84 25.04C15.7867 25.36 15.6933 25.6533 15.56 25.92C15.3733 26.32 15.0667 26.6533 14.64 26.92C14.2133 27.16 13.76 27.28 13.28 27.28C12.8 27.28 12.3333 27.16 11.88 26.92C11.4533 26.6533 11.1467 26.3333 10.96 25.96C10.8267 25.6667 10.7333 25.36 10.68 25.04C10.6267 24.6933 10.6 24.2533 10.6 23.72V17C10.6 15.64 10.76 14.4667 11.08 13.48C11.4 12.4933 11.92 11.5733 12.64 10.72C13.44 9.76 14.4 9.01333 15.52 8.48C16.6667 7.94667 17.8667 7.68 19.12 7.68C20.6667 7.68 22.1333 8.08 23.52 8.88C24.9067 9.68 25.9867 10.76 26.76 12.12C27.08 12.7333 27.3333 13.48 27.52 14.36C27.7067 15.2133 27.8 16.1333 27.8 17.12V23.72C27.8 24.2533 27.7733 24.6933 27.72 25.04C27.6667 25.36 27.5733 25.6533 27.44 25.92C27.2533 26.32 26.9467 26.6533 26.52 26.92C26.0933 27.16 25.64 27.28 25.16 27.28C24.68 27.28 24.2133 27.16 23.76 26.92C23.3333 26.6533 23.0267 26.3333 22.84 25.96C22.7067 25.6667 22.6133 25.36 22.56 25.04C22.5067 24.6933 22.48 24.2533 22.48 23.72ZM38.0781 19L41.8781 10.2C42.2781 9.26667 42.6648 8.64 43.0381 8.32C43.4381 7.97333 43.9848 7.8 44.6781 7.8C45.3715 7.8 45.9715 8.05333 46.4781 8.56C47.0115 9.04 47.2781 9.61333 47.2781 10.28C47.2781 10.6 47.2381 10.8933 47.1581 11.16C47.1048 11.4 46.9448 11.7867 46.6781 12.32L40.7981 25.32C40.1848 26.6267 39.3048 27.28 38.1581 27.28C37.4915 27.28 36.9581 27.1333 36.5581 26.84C36.1848 26.5467 35.8248 26.04 35.4781 25.32L29.4381 12.36C29.1448 11.8 28.9715 11.4 28.9181 11.16C28.8381 10.92 28.7981 10.6267 28.7981 10.28C28.7981 9.61333 29.0515 9.04 29.5581 8.56C30.0915 8.05333 30.7181 7.8 31.4381 7.8C32.1315 7.8 32.6648 7.96 33.0381 8.28C33.4381 8.6 33.8381 9.22667 34.2381 10.16L38.0781 19ZM54.2469 11.36V23.72C54.2469 24.2533 54.2202 24.6933 54.1669 25.04C54.1135 25.36 54.0202 25.6533 53.8869 25.92C53.7002 26.32 53.3935 26.6533 52.9669 26.92C52.5402 27.16 52.0869 27.28 51.6069 27.28C51.1269 27.28 50.6602 27.16 50.2069 26.92C49.7802 26.6533 49.4735 26.3333 49.2869 25.96C49.1535 25.6667 49.0602 25.36 49.0069 25.04C48.9535 24.6933 48.9269 24.2533 48.9269 23.72V11.36C48.9269 10.8267 48.9535 10.4 49.0069 10.08C49.0602 9.73333 49.1535 9.41333 49.2869 9.12C49.4735 8.74667 49.7802 8.44 50.2069 8.2C50.6335 7.93333 51.0869 7.8 51.5669 7.8C52.0735 7.8 52.5402 7.93333 52.9669 8.2C53.3935 8.44 53.7002 8.74667 53.8869 9.12C54.0202 9.38667 54.1135 9.69333 54.1669 10.04C54.2202 10.3867 54.2469 10.8267 54.2469 11.36ZM51.6469 0.199999C52.0735 0.199999 52.4735 0.293332 52.8469 0.479998C53.2202 0.639999 53.5402 0.866666 53.8069 1.16C54.1002 1.42667 54.3269 1.76 54.4869 2.16C54.6735 2.53333 54.7669 2.93333 54.7669 3.36C54.7669 4.26667 54.4469 5.04 53.8069 5.68C53.1935 6.29333 52.4469 6.6 51.5669 6.6C50.6602 6.6 49.9002 6.29333 49.2869 5.68C48.6735 5.04 48.3669 4.28 48.3669 3.4C48.3669 2.52 48.6735 1.77333 49.2869 1.16C49.9269 0.519999 50.7135 0.199999 51.6469 0.199999ZM66.7894 7.68C67.8027 7.68 68.816 7.85333 69.8294 8.2C70.8427 8.52 71.7627 8.97333 72.5894 9.56C73.2827 10.04 73.7494 10.48 73.9894 10.88C74.256 11.28 74.3894 11.7467 74.3894 12.28C74.3894 13.0267 74.1227 13.6533 73.5894 14.16C73.0827 14.6667 72.4427 14.92 71.6694 14.92C71.3494 14.92 71.0827 14.88 70.8694 14.8C70.656 14.72 70.3627 14.5333 69.9894 14.24C69.4027 13.7867 68.8827 13.48 68.4294 13.32C68.0027 13.1333 67.496 13.04 66.9094 13.04C66.2694 13.04 65.6694 13.16 65.1094 13.4C64.5494 13.64 64.056 13.96 63.6294 14.36C63.2294 14.76 62.9094 15.24 62.6694 15.8C62.4294 16.3333 62.3094 16.9067 62.3094 17.52C62.3094 18.16 62.4294 18.76 62.6694 19.32C62.9094 19.8533 63.2294 20.32 63.6294 20.72C64.056 21.12 64.536 21.44 65.0694 21.68C65.6294 21.92 66.216 22.04 66.8294 22.04C67.1494 22.04 67.4294 22.0267 67.6694 22C67.9094 21.9733 68.1494 21.92 68.3894 21.84C68.6294 21.7333 68.896 21.5867 69.1894 21.4C69.4827 21.1867 69.856 20.9067 70.3094 20.56C70.6027 20.3467 70.8694 20.2 71.1094 20.12C71.3494 20.0133 71.6294 19.96 71.9494 19.96C72.696 19.96 73.3227 20.2267 73.8294 20.76C74.3627 21.2667 74.6294 21.8933 74.6294 22.64C74.6294 23.2267 74.4027 23.8 73.9494 24.36C73.496 24.92 72.896 25.4267 72.1494 25.88C71.4294 26.3333 70.6027 26.7067 69.6694 27C68.7627 27.2667 67.8294 27.4 66.8694 27.4C65.5094 27.4 64.216 27.1467 62.9894 26.64C61.7894 26.1067 60.736 25.3867 59.8294 24.48C58.9227 23.5733 58.2027 22.52 57.6694 21.32C57.1627 20.12 56.9094 18.84 56.9094 17.48C56.9094 16.12 57.1627 14.8533 57.6694 13.68C58.2027 12.48 58.9094 11.44 59.7894 10.56C60.696 9.68 61.7494 8.98667 62.9494 8.48C64.1494 7.94667 65.4294 7.68 66.7894 7.68ZM77.8528 8.08V5.24C77.8528 4.70667 77.8795 4.26667 77.9328 3.92C77.9861 3.57333 78.0795 3.26667 78.2128 3C78.3995 2.62667 78.7061 2.32 79.1328 2.08C79.5861 1.81333 80.0528 1.68 80.5328 1.68C80.9861 1.68 81.4261 1.81333 81.8528 2.08C82.3061 2.32 82.6261 2.62667 82.8128 3C82.9461 3.26667 83.0395 3.57333 83.0928 3.92C83.1461 4.26667 83.1728 4.70667 83.1728 5.24V8.08H83.7728C84.6261 8.08 85.2928 8.18667 85.7728 8.4C86.1195 8.56 86.3995 8.84 86.6128 9.24C86.8528 9.64 86.9728 10.0533 86.9728 10.48C86.9728 10.9067 86.8528 11.32 86.6128 11.72C86.3995 12.12 86.1195 12.4 85.7728 12.56C85.5328 12.6667 85.2528 12.7467 84.9328 12.8C84.6128 12.8533 84.2261 12.88 83.7728 12.88H83.1728V23.72C83.1728 24.36 83.1461 24.8133 83.0928 25.08C83.0661 25.3467 82.9728 25.64 82.8128 25.96C82.5995 26.3333 82.2795 26.6533 81.8528 26.92C81.4261 27.16 80.9728 27.28 80.4928 27.28C80.0395 27.28 79.5861 27.16 79.1328 26.92C78.7061 26.6533 78.3995 26.3333 78.2128 25.96C78.0795 25.6667 77.9861 25.36 77.9328 25.04C77.8795 24.6933 77.8528 24.2533 77.8528 23.72V12.88C77.4795 12.88 77.1995 12.8667 77.0128 12.84C76.8528 12.8133 76.6661 12.7733 76.4528 12.72C75.9461 12.5867 75.5461 12.32 75.2528 11.92C74.9595 11.4933 74.8128 11.0133 74.8128 10.48C74.8128 9.86667 74.9995 9.34667 75.3728 8.92C75.7728 8.49333 76.2928 8.22667 76.9328 8.12C77.0661 8.09333 77.1861 8.08 77.2928 8.08C77.3995 8.08 77.5861 8.08 77.8528 8.08ZM107.146 11.32V23.72C107.146 24.9733 106.932 25.88 106.506 26.44C106.106 27 105.452 27.28 104.546 27.28C103.852 27.28 103.292 27.12 102.866 26.8C102.439 26.48 102.092 25.96 101.826 25.24C100.252 26.68 98.4256 27.4 96.3456 27.4C95.039 27.4 93.8123 27.1467 92.6656 26.64C91.5456 26.1333 90.5723 25.44 89.7456 24.56C88.919 23.6533 88.2656 22.6 87.7856 21.4C87.3056 20.2 87.0656 18.8933 87.0656 17.48C87.0656 16.0933 87.2923 14.8133 87.7456 13.64C88.2256 12.44 88.879 11.4 89.7056 10.52C90.5323 9.64 91.5056 8.94667 92.6256 8.44C93.7456 7.93333 94.959 7.68 96.2656 7.68C97.3323 7.68 98.3456 7.86667 99.3056 8.24C100.266 8.58667 101.106 9.09333 101.826 9.76C102.039 9.06667 102.346 8.57333 102.746 8.28C103.146 7.96 103.692 7.8 104.386 7.8C105.506 7.8 106.306 8.22667 106.786 9.08C107.026 9.48 107.146 10.2267 107.146 11.32ZM97.1056 12.92C96.4923 12.92 95.919 13.04 95.3856 13.28C94.8523 13.52 94.3856 13.8533 93.9856 14.28C93.5856 14.68 93.2656 15.16 93.0256 15.72C92.7856 16.2533 92.6656 16.8267 92.6656 17.44C92.6656 18.08 92.7856 18.68 93.0256 19.24C93.2656 19.8 93.5856 20.2933 93.9856 20.72C94.3856 21.1467 94.8523 21.48 95.3856 21.72C95.9456 21.96 96.5456 22.08 97.1856 22.08C97.8256 22.08 98.4123 21.96 98.9456 21.72C99.5056 21.48 99.9856 21.16 100.386 20.76C100.786 20.3333 101.106 19.84 101.346 19.28C101.586 18.72 101.706 18.12 101.706 17.48C101.706 16.84 101.586 16.2533 101.346 15.72C101.106 15.16 100.772 14.68 100.346 14.28C99.9456 13.8533 99.4656 13.52 98.9056 13.28C98.3456 13.04 97.7456 12.92 97.1056 12.92Z" fill="black"/>
<rect y="1" width="6.80723" height="25.9526" fill="url(#paint0_linear_13_7)"/>
<circle cx="3.40361" cy="32.9089" r="3.40361" fill="url(#paint1_linear_13_7)"/>
<path d="M61.9482 31.8906V39H60.7227V31.8906H61.9482ZM64.8486 35.001V35.9727H61.6357V35.001H64.8486ZM65.2539 31.8906V32.8672H61.6357V31.8906H65.2539ZM67.373 33.7168V39H66.1914V33.7168H67.373ZM66.1133 32.3301C66.1133 32.151 66.1719 32.0029 66.2891 31.8857C66.4095 31.7653 66.5755 31.7051 66.7871 31.7051C66.9954 31.7051 67.1598 31.7653 67.2803 31.8857C67.4007 32.0029 67.4609 32.151 67.4609 32.3301C67.4609 32.5059 67.4007 32.6523 67.2803 32.7695C67.1598 32.8867 66.9954 32.9453 66.7871 32.9453C66.5755 32.9453 66.4095 32.8867 66.2891 32.7695C66.1719 32.6523 66.1133 32.5059 66.1133 32.3301ZM69.8291 34.8447V39H68.6523V33.7168H69.7607L69.8291 34.8447ZM69.6191 36.1631L69.2383 36.1582C69.2415 35.7839 69.2936 35.4404 69.3945 35.1279C69.4987 34.8154 69.6419 34.5469 69.8242 34.3223C70.0098 34.0977 70.2311 33.9251 70.4883 33.8047C70.7454 33.681 71.0319 33.6191 71.3477 33.6191C71.6016 33.6191 71.8311 33.6549 72.0361 33.7266C72.2445 33.7949 72.4219 33.9072 72.5684 34.0635C72.7181 34.2197 72.832 34.4232 72.9102 34.6738C72.9883 34.9212 73.0273 35.2256 73.0273 35.5869V39H71.8457V35.582C71.8457 35.3281 71.8083 35.1279 71.7334 34.9814C71.6618 34.8317 71.556 34.7259 71.416 34.6641C71.2793 34.599 71.1084 34.5664 70.9033 34.5664C70.7015 34.5664 70.5208 34.6087 70.3613 34.6934C70.2018 34.778 70.0667 34.8936 69.9561 35.04C69.8486 35.1865 69.7656 35.3558 69.707 35.5479C69.6484 35.7399 69.6191 35.945 69.6191 36.1631ZM77.207 37.9404V35.4209C77.207 35.2321 77.1729 35.0693 77.1045 34.9326C77.0361 34.7959 76.932 34.6901 76.792 34.6152C76.6553 34.5404 76.4827 34.5029 76.2744 34.5029C76.0824 34.5029 75.9163 34.5355 75.7764 34.6006C75.6364 34.6657 75.5273 34.7536 75.4492 34.8643C75.3711 34.9749 75.332 35.1003 75.332 35.2402H74.1602C74.1602 35.0319 74.2106 34.8301 74.3115 34.6348C74.4124 34.4395 74.5589 34.2653 74.751 34.1123C74.943 33.9593 75.1725 33.8389 75.4395 33.751C75.7064 33.6631 76.0059 33.6191 76.3379 33.6191C76.735 33.6191 77.0866 33.6859 77.3926 33.8193C77.7018 33.9528 77.9443 34.1546 78.1201 34.4248C78.2992 34.6917 78.3887 35.027 78.3887 35.4307V37.7793C78.3887 38.0202 78.4049 38.2367 78.4375 38.4287C78.4733 38.6175 78.5238 38.7819 78.5889 38.9219V39H77.3828C77.3275 38.873 77.2835 38.7119 77.251 38.5166C77.2217 38.318 77.207 38.126 77.207 37.9404ZM77.3779 35.7871L77.3877 36.5146H76.543C76.3249 36.5146 76.1328 36.5358 75.9668 36.5781C75.8008 36.6172 75.6624 36.6758 75.5518 36.7539C75.4411 36.832 75.3581 36.9264 75.3027 37.0371C75.2474 37.1478 75.2197 37.2731 75.2197 37.4131C75.2197 37.5531 75.2523 37.6816 75.3174 37.7988C75.3825 37.9128 75.4769 38.0023 75.6006 38.0674C75.7275 38.1325 75.8805 38.165 76.0596 38.165C76.3005 38.165 76.5104 38.1162 76.6895 38.0186C76.8717 37.9176 77.015 37.7956 77.1191 37.6523C77.2233 37.5059 77.2786 37.3675 77.2852 37.2373L77.666 37.7598C77.627 37.8932 77.5602 38.0365 77.4658 38.1895C77.3714 38.3424 77.2477 38.4889 77.0947 38.6289C76.945 38.7656 76.7643 38.8779 76.5527 38.9658C76.3444 39.0537 76.1035 39.0977 75.8301 39.0977C75.485 39.0977 75.1774 39.0293 74.9072 38.8926C74.637 38.7526 74.4255 38.5654 74.2725 38.3311C74.1195 38.0934 74.043 37.8249 74.043 37.5254C74.043 37.2454 74.0951 36.998 74.1992 36.7832C74.3066 36.5651 74.4629 36.3828 74.668 36.2363C74.8763 36.0898 75.1302 35.9792 75.4297 35.9043C75.7292 35.8262 76.071 35.7871 76.4551 35.7871H77.3779ZM80.7861 34.8447V39H79.6094V33.7168H80.7178L80.7861 34.8447ZM80.5762 36.1631L80.1953 36.1582C80.1986 35.7839 80.2507 35.4404 80.3516 35.1279C80.4557 34.8154 80.599 34.5469 80.7812 34.3223C80.9668 34.0977 81.1882 33.9251 81.4453 33.8047C81.7025 33.681 81.9889 33.6191 82.3047 33.6191C82.5586 33.6191 82.7881 33.6549 82.9932 33.7266C83.2015 33.7949 83.3789 33.9072 83.5254 34.0635C83.6751 34.2197 83.7891 34.4232 83.8672 34.6738C83.9453 34.9212 83.9844 35.2256 83.9844 35.5869V39H82.8027V35.582C82.8027 35.3281 82.7653 35.1279 82.6904 34.9814C82.6188 34.8317 82.513 34.7259 82.373 34.6641C82.2363 34.599 82.0654 34.5664 81.8604 34.5664C81.6585 34.5664 81.4779 34.6087 81.3184 34.6934C81.1589 34.778 81.0238 34.8936 80.9131 35.04C80.8057 35.1865 80.7227 35.3558 80.6641 35.5479C80.6055 35.7399 80.5762 35.945 80.5762 36.1631ZM87.3438 38.1602C87.5358 38.1602 87.7083 38.1227 87.8613 38.0479C88.0176 37.9697 88.1429 37.8623 88.2373 37.7256C88.335 37.5889 88.3887 37.431 88.3984 37.252H89.5068C89.5003 37.5938 89.3994 37.9046 89.2041 38.1846C89.0088 38.4645 88.75 38.6875 88.4277 38.8535C88.1055 39.0163 87.749 39.0977 87.3584 39.0977C86.9548 39.0977 86.6032 39.0293 86.3037 38.8926C86.0042 38.7526 85.7552 38.5605 85.5566 38.3164C85.3581 38.0723 85.2083 37.7907 85.1074 37.4717C85.0098 37.1527 84.9609 36.8109 84.9609 36.4463V36.2754C84.9609 35.9108 85.0098 35.569 85.1074 35.25C85.2083 34.9277 85.3581 34.6445 85.5566 34.4004C85.7552 34.1562 86.0042 33.9658 86.3037 33.8291C86.6032 33.6891 86.9531 33.6191 87.3535 33.6191C87.7767 33.6191 88.1478 33.7038 88.4668 33.873C88.7858 34.0391 89.0365 34.2718 89.2188 34.5713C89.4043 34.8675 89.5003 35.2126 89.5068 35.6064H88.3984C88.3887 35.4111 88.3398 35.2354 88.252 35.0791C88.1673 34.9196 88.0469 34.7926 87.8906 34.6982C87.7376 34.6038 87.5537 34.5566 87.3389 34.5566C87.1012 34.5566 86.9043 34.6055 86.748 34.7031C86.5918 34.7975 86.4697 34.9277 86.3818 35.0938C86.2939 35.2565 86.2305 35.4404 86.1914 35.6455C86.1556 35.8473 86.1377 36.0573 86.1377 36.2754V36.4463C86.1377 36.6644 86.1556 36.876 86.1914 37.0811C86.2272 37.2861 86.2891 37.4701 86.377 37.6328C86.4681 37.7923 86.5918 37.9209 86.748 38.0186C86.9043 38.113 87.1029 38.1602 87.3438 38.1602ZM92.7393 39.0977C92.3486 39.0977 91.9954 39.0342 91.6797 38.9072C91.3672 38.777 91.1003 38.5964 90.8789 38.3652C90.6608 38.1341 90.4932 37.8623 90.376 37.5498C90.2588 37.2373 90.2002 36.9004 90.2002 36.5391V36.3438C90.2002 35.9303 90.2604 35.556 90.3809 35.2207C90.5013 34.8854 90.6689 34.599 90.8838 34.3613C91.0986 34.1204 91.3525 33.9365 91.6455 33.8096C91.9385 33.6826 92.2559 33.6191 92.5977 33.6191C92.9753 33.6191 93.3057 33.6826 93.5889 33.8096C93.8721 33.9365 94.1064 34.1156 94.292 34.3467C94.4808 34.5745 94.6208 34.8464 94.7119 35.1621C94.8063 35.4779 94.8535 35.8262 94.8535 36.207V36.71H90.7715V35.8652H93.6914V35.7725C93.6849 35.5609 93.6426 35.3623 93.5645 35.1768C93.4896 34.9912 93.374 34.8415 93.2178 34.7275C93.0615 34.6136 92.8532 34.5566 92.5928 34.5566C92.3975 34.5566 92.2233 34.599 92.0703 34.6836C91.9206 34.765 91.7952 34.8838 91.6943 35.04C91.5934 35.1963 91.5153 35.3851 91.46 35.6064C91.4079 35.8245 91.3818 36.0703 91.3818 36.3438V36.5391C91.3818 36.7702 91.4128 36.985 91.4746 37.1836C91.5397 37.3789 91.6341 37.5498 91.7578 37.6963C91.8815 37.8428 92.0312 37.9583 92.207 38.043C92.3828 38.1243 92.583 38.165 92.8076 38.165C93.0908 38.165 93.3431 38.1081 93.5645 37.9941C93.7858 37.8802 93.9779 37.7191 94.1406 37.5107L94.7607 38.1113C94.6468 38.2773 94.4987 38.4368 94.3164 38.5898C94.1341 38.7396 93.9111 38.8617 93.6475 38.9561C93.387 39.0505 93.0843 39.0977 92.7393 39.0977ZM97.0312 33.7168V39H95.8496V33.7168H97.0312ZM95.7715 32.3301C95.7715 32.151 95.8301 32.0029 95.9473 31.8857C96.0677 31.7653 96.2337 31.7051 96.4453 31.7051C96.6536 31.7051 96.818 31.7653 96.9385 31.8857C97.0589 32.0029 97.1191 32.151 97.1191 32.3301C97.1191 32.5059 97.0589 32.6523 96.9385 32.7695C96.818 32.8867 96.6536 32.9453 96.4453 32.9453C96.2337 32.9453 96.0677 32.8867 95.9473 32.7695C95.8301 32.6523 95.7715 32.5059 95.7715 32.3301ZM99.502 34.7227V39H98.3252V33.7168H99.4482L99.502 34.7227ZM101.118 33.6826L101.108 34.7764C101.037 34.7633 100.959 34.7536 100.874 34.7471C100.793 34.7406 100.711 34.7373 100.63 34.7373C100.428 34.7373 100.251 34.7666 100.098 34.8252C99.9447 34.8805 99.8161 34.9619 99.7119 35.0693C99.611 35.1735 99.5329 35.3005 99.4775 35.4502C99.4222 35.5999 99.3896 35.7676 99.3799 35.9531L99.1113 35.9727C99.1113 35.6406 99.1439 35.333 99.209 35.0498C99.2741 34.7666 99.3717 34.5176 99.502 34.3027C99.6354 34.0879 99.8014 33.9202 100 33.7998C100.202 33.6794 100.435 33.6191 100.698 33.6191C100.77 33.6191 100.846 33.6257 100.928 33.6387C101.012 33.6517 101.076 33.6663 101.118 33.6826ZM104.658 37.9404V35.4209C104.658 35.2321 104.624 35.0693 104.556 34.9326C104.487 34.7959 104.383 34.6901 104.243 34.6152C104.106 34.5404 103.934 34.5029 103.726 34.5029C103.534 34.5029 103.368 34.5355 103.228 34.6006C103.088 34.6657 102.979 34.7536 102.9 34.8643C102.822 34.9749 102.783 35.1003 102.783 35.2402H101.611C101.611 35.0319 101.662 34.8301 101.763 34.6348C101.864 34.4395 102.01 34.2653 102.202 34.1123C102.394 33.9593 102.624 33.8389 102.891 33.751C103.158 33.6631 103.457 33.6191 103.789 33.6191C104.186 33.6191 104.538 33.6859 104.844 33.8193C105.153 33.9528 105.396 34.1546 105.571 34.4248C105.75 34.6917 105.84 35.027 105.84 35.4307V37.7793C105.84 38.0202 105.856 38.2367 105.889 38.4287C105.924 38.6175 105.975 38.7819 106.04 38.9219V39H104.834C104.779 38.873 104.735 38.7119 104.702 38.5166C104.673 38.318 104.658 38.126 104.658 37.9404ZM104.829 35.7871L104.839 36.5146H103.994C103.776 36.5146 103.584 36.5358 103.418 36.5781C103.252 36.6172 103.114 36.6758 103.003 36.7539C102.892 36.832 102.809 36.9264 102.754 37.0371C102.699 37.1478 102.671 37.2731 102.671 37.4131C102.671 37.5531 102.703 37.6816 102.769 37.7988C102.834 37.9128 102.928 38.0023 103.052 38.0674C103.179 38.1325 103.332 38.165 103.511 38.165C103.752 38.165 103.962 38.1162 104.141 38.0186C104.323 37.9176 104.466 37.7956 104.57 37.6523C104.674 37.5059 104.73 37.3675 104.736 37.2373L105.117 37.7598C105.078 37.8932 105.011 38.0365 104.917 38.1895C104.823 38.3424 104.699 38.4889 104.546 38.6289C104.396 38.7656 104.215 38.8779 104.004 38.9658C103.796 39.0537 103.555 39.0977 103.281 39.0977C102.936 39.0977 102.629 39.0293 102.358 38.8926C102.088 38.7526 101.877 38.5654 101.724 38.3311C101.571 38.0934 101.494 37.8249 101.494 37.5254C101.494 37.2454 101.546 36.998 101.65 36.7832C101.758 36.5651 101.914 36.3828 102.119 36.2363C102.327 36.0898 102.581 35.9792 102.881 35.9043C103.18 35.8262 103.522 35.7871 103.906 35.7871H104.829Z" fill="black"/>
<defs>
<linearGradient id="paint0_linear_13_7" x1="8.08359" y1="10.6931" x2="-1.48908" y2="10.6931" gradientUnits="userSpaceOnUse">
<stop stop-color="#BA5C40"/>
<stop offset="1" stop-color="#F14918"/>
</linearGradient>
<linearGradient id="paint1_linear_13_7" x1="8.08359" y1="32.0477" x2="-1.48908" y2="32.0477" gradientUnits="userSpaceOnUse">
<stop stop-color="#BA5C40"/>
<stop offset="1" stop-color="#F14918"/>
</linearGradient>
</defs>
</svg>
